<?xml version="1.0" encoding="iso-8859-1"?>
<!-- Generator: Adobe Illustrator 19.2.0, SVG Export Plug-In . SVG Version: 6.00 Build 0)  -->
<svg version="1.1" xmlns="http://www.w3.org/2000/svg" xmlns:xlink="http://www.w3.org/1999/xlink" x="0px" y="0px"
	 viewBox="0 0 68.937 83.068" style="enable-background:new 0 0 68.937 83.068;" xml:space="preserve">
<g id="Nippon_x5F_Family_x5F_Book">
	<path style="fill-rule:evenodd;clip-rule:evenodd;" d="M38.354,0.004c3.254-0.066,6.197,0.676,8.601,1.699
		c1.153,0.492,2.174,1.23,2.951,2.201c0.783,0.977,1.455,2.098,1.5,3.65c0.019,0.639-0.43,1.578-0.1,2.1
		c0.289,0.455,1.555,0.178,2.45,0.15c2.85-0.09,5.484,0.131,7.551,0.701c2.8,0.769,5.593,1.859,7.001,4.049
		c0.629,0.978,0.524,2.299,0.55,4.002c0.042,2.752,0.051,6.318,0.051,9.451c0,8.287,0,16.922,0,25.203
		c0,2.09,0.089,4.219-0.051,6.201c-0.291,4.154-2.798,5.586-5.601,7.303c-4.056,2.482-8.289,4.518-12.402,6.949
		c-0.669,0.396-1.291,0.887-1.95,1.301c-0.664,0.416-1.405,0.736-2.1,1.1c-3.517,1.844-6.738,3.873-10.252,5.902
		c-0.876,0.506-1.656,1.135-2.65,1.1c-0.596-0.021-1.611-0.605-2.3-1.051c-4.752-3.072-9.741-5.623-14.552-8.602
		c-2.765-1.711-5.52-3.213-8.352-4.9c-1.297-0.771-2.606-1.656-4.101-2.551c-1.395-0.834-3.202-1.57-4.001-2.6
		c-0.838-1.08-0.55-3.973-0.55-6.15c0-9.227,0-17.986,0-27.254c0-2.635,0-5.4,0-8.053c0-0.947-0.109-2.104,0.15-2.75
		c0.55-1.373,2.806-2.223,4.15-3c2.377-1.377,4.427-2.662,6.752-4.002c0.759-0.436,1.522-0.853,2.25-1.299
		c4.473-2.734,9.112-5.215,13.552-7.902c0.815-0.492,1.51-0.92,2.3-1.301C31.753,0.426,34.457,0.08,38.354,0.004z M14.2,66.514
		c0.001-6.053,0-11.904,0-18.002c0-5.092-0.164-10.402,0-15.152c0.06-1.721-0.306-3.803,0.101-5.051
		c0.397-1.225,2.305-1.898,3.5-2.601c1.296-0.76,2.622-1.465,3.8-2.199c5.052-3.15,10.058-5.82,15.153-8.752
		c2.532-1.457,5.108-2.828,7.551-4.4c0.694-0.684,1.005-1.873,0.6-2.951c-0.987-2.633-5.207-3.59-8.951-3.352
		c-3.741,0.24-6.157,2.404-8.752,3.652c-5.679,3.33-11.523,6.781-17.453,10.002c-0.836,0.453-1.763,1.133-2.801,1.75
		c-0.998,0.592-2.156,1.152-2.45,2.148c-0.184,0.625-0.1,1.539-0.1,2.502c0,2.557,0,5.307,0,7.801
		c-0.001,9.799,0.001,18.959,0,28.754c0,0.893-0.11,2.018,0.1,2.551c0.261,0.662,1.504,1.152,2.2,1.551
		c2.096,1.201,3.881,2.475,5.901,3.6c0.385,0.217,0.848,0.58,1.351,0.451C14.376,68.135,14.2,67.258,14.2,66.514z M54.457,39.61
		c-2.02,1.055-3.991,2.26-5.851,3.352c-4.827,2.83-9.862,5.635-14.652,8.4c-0.473,0.273-1.025,0.732-1.65,0.6
		c-0.456-0.365-0.3-1.025-0.3-1.549c0-3.223-0.071-5.992,0-8.953c0.027-1.115-0.23-2.57,0.05-3.549
		c0.368-1.289,2.558-2.104,3.751-2.801c2.864-1.676,5.605-3.156,8.401-4.701c2.873-1.588,5.458-3.213,8.251-4.851
		c2.794-1.639,5.417-3.219,8.351-4.75c1.312-0.684,3.131-1.803,2.95-3.602c-0.164-1.639-1.913-2.553-3.351-3.051
		c-3.133-1.084-7.423-0.769-10.051,0.451c-0.605,0.281-1.173,0.705-1.8,1.051c-4.312,2.365-8.472,4.826-12.752,7.25
		c-3.733,2.115-7.12,4.203-10.802,6.301c-1.175,0.67-2.886,1.381-3.25,2.502c-0.22,0.674-0.097,1.602-0.1,2.549
		c-0.02,5.973,0.006,12.24,0,18.103c-0.006,5.473,0,12.326,0,18.303c0,0.889-0.148,2.09,0.05,2.65c0.226,0.639,1.636,1.258,2.3,1.65
		c2.199,1.299,4.283,2.404,6.351,3.602c0.391,0.227,0.817,0.631,1.4,0.5c0.351-0.393,0.264-1,0.25-1.5
		c-0.077-2.752,0.115-5.971,0-8.852c-0.039-0.975-0.214-2.707,0.05-3.451c0.174-0.49,0.833-0.764,1.45-1.1
		c1.679-0.916,3.101-1.717,4.651-2.602c5.217-2.973,10.219-5.77,15.353-8.851c0.63-0.377,2.676-1.326,2.75-2.1
		c0.067-0.693-0.611-1.615-0.95-2.301c-0.376-0.76-0.924-1.678-0.95-2.35c-0.02-0.524,0.262-1.197,0.45-1.75
		c0.421-1.242,0.73-2.221,1.05-3.352c0.151-0.533,0.43-1.168,0.2-1.75C55.471,38.879,54.908,39.373,54.457,39.61z"/>
</g>
<g id="Layer_1">
</g>
</svg>
